<svg width="5000" height="1024" viewBox="0 0 5000 1024" fill="none" xmlns="http://www.w3.org/2000/svg">
<g clip-path="url(#clip0)">
<path fill-rule="evenodd" clip-rule="evenodd" d="M512.976 689C525.05 689 534.375 699.652 532.683 711.607C506.111 899.302 462.111 1022 412.326 1022C362.541 1022 318.54 899.302 291.969 711.607C290.277 699.652 299.602 689 311.676 689H512.976Z" fill="#FFAB40"/>
<rect x="269" y="220" width="285" height="458" rx="20" fill="#4285F4"/>
<path fill-rule="evenodd" clip-rule="evenodd" d="M450.569 740.829C462.679 740.829 472.029 751.533 470.121 763.491C456.698 847.585 435.539 901.829 411.736 901.829C387.933 901.829 366.775 847.585 353.352 763.491C351.443 751.533 360.794 740.829 372.903 740.829H450.569Z" fill="#FFE57F"/>
<path d="M405 277.887C408.094 276.1 411.906 276.1 415 277.887L480.344 315.613C483.438 317.4 485.344 320.701 485.344 324.274V399.727C485.344 403.299 483.438 406.6 480.344 408.387L415 446.113C411.906 447.9 408.094 447.9 405 446.113L339.656 408.387C336.562 406.6 334.656 403.299 334.656 399.726V324.273C334.656 320.701 336.562 317.4 339.656 315.613L405 277.887Z" fill="#3870B2"/>
<path d="M405 294.887C408.094 293.1 411.906 293.1 415 294.887L465.622 324.113C468.716 325.9 470.622 329.201 470.622 332.774V391.227C470.622 394.799 468.716 398.1 465.622 399.887L415 429.113C411.906 430.9 408.094 430.9 405 429.113L354.378 399.887C351.284 398.1 349.378 394.799 349.378 391.226V332.773C349.378 329.201 351.284 325.9 354.378 324.113L405 294.887Z" fill="#D6F0FF"/>
<path d="M18 573.397L242 456V678L177.572 573.397H18Z" fill="#083042"/>
<path d="M803 573.397L579 456V678L643.428 573.397H803Z" fill="#083042"/>
<path d="M393.878 11.9623C401.869 1.07592 418.131 1.07593 426.122 11.9623L546.845 176.415C556.542 189.624 547.109 208.25 530.723 208.25H289.277C272.891 208.25 263.458 189.624 273.155 176.415L393.878 11.9623Z" fill="#3DDC84"/>
<path d="M1013.85 373.74V328.9C1033.36 340.047 1052.23 345.62 1070.47 345.62C1081.36 345.62 1089.22 342.453 1094.03 336.12C1099.1 329.787 1101.63 320.16 1101.63 307.24V137.38H1146.85V307.24C1146.85 335.613 1140.01 356.767 1126.33 370.7C1114.17 383.113 1097.45 389.32 1076.17 389.32C1054.89 389.32 1034.12 384.127 1013.85 373.74ZM1340.78 221.36C1347.11 229.467 1351.8 238.84 1354.84 249.48C1358.13 260.12 1359.78 269.873 1359.78 278.74C1359.78 287.607 1359.27 295.587 1358.26 302.68H1238.94C1239.44 317.627 1243.12 329.787 1249.96 339.16C1256.8 348.533 1267.18 353.22 1281.12 353.22C1299.61 353.22 1310.63 345.113 1314.18 328.9H1359.4C1356.36 347.393 1347.87 361.96 1333.94 372.6C1319.5 383.747 1301.89 389.32 1281.12 389.32C1256.8 389.32 1236.4 380.453 1219.94 362.72C1202.96 344.227 1194.48 320.54 1194.48 291.66C1194.48 262.02 1202.96 238.207 1219.94 220.22C1236.15 202.993 1256.54 194.38 1281.12 194.38C1306.7 194.38 1326.59 203.373 1340.78 221.36ZM1281.5 230.1C1268.83 230.1 1258.95 234.28 1251.86 242.64C1244.76 250.747 1240.58 261.26 1239.32 274.18H1317.98C1317.98 254.167 1311.64 240.74 1298.98 233.9C1294.16 231.367 1288.34 230.1 1281.5 230.1ZM1517.58 379.44C1500.86 386.027 1487.69 389.32 1478.06 389.32C1468.43 389.32 1459.95 388.18 1452.6 385.9C1445.51 383.62 1439.17 380.2 1433.6 375.64C1421.95 365.253 1416.12 350.94 1416.12 332.7V229.34H1390.28V199.32H1416.12V150.68H1460.96V199.32H1511.12V229.34H1460.96V331.18C1460.96 346.38 1468.18 353.98 1482.62 353.98C1489.97 353.98 1499.47 351.953 1511.12 347.9L1517.58 379.44ZM1604.42 224.4C1616.08 204.387 1633.81 194.38 1657.62 194.38C1680.42 194.38 1699.93 202.993 1716.14 220.22C1733.37 238.46 1741.98 262.273 1741.98 291.66C1741.98 321.3 1733.24 345.24 1715.76 363.48C1699.55 380.707 1680.17 389.32 1657.62 389.32C1635.08 389.32 1618.61 382.607 1608.22 369.18V474.06H1563.38V199.32H1600.24L1604.42 224.4ZM1649.64 348.66C1654.96 348.66 1660.41 347.52 1665.98 345.24C1671.81 342.96 1677 339.413 1681.56 334.6C1691.7 323.96 1696.76 309.773 1696.76 292.04C1696.76 274.053 1692.33 259.993 1683.46 249.86C1674.85 239.727 1664.21 234.66 1651.54 234.66C1639.13 234.66 1628.87 238.333 1620.76 245.68C1612.91 252.773 1608.73 263.033 1608.22 276.46V309.52C1608.22 321.427 1612.4 331.053 1620.76 338.4C1628.62 345.24 1638.24 348.66 1649.64 348.66ZM1856.12 276.08C1870.81 276.08 1887.78 278.487 1907.04 283.3V265.06C1907.04 252.14 1904.38 242.64 1899.06 236.56C1893.99 230.227 1885.5 227.06 1873.6 227.06C1861.94 227.06 1852.95 229.467 1846.62 234.28C1840.28 238.84 1837.12 245.427 1837.12 254.04H1788.1C1788.1 233.013 1795.44 217.813 1810.14 208.44C1825.08 199.067 1845.86 194.38 1872.46 194.38C1910.46 194.38 1935.03 207.68 1946.18 234.28C1949.98 243.4 1951.88 254.167 1951.88 266.58V384H1912.74L1909.32 359.3C1897.41 379.313 1879.17 389.32 1854.6 389.32C1830.78 389.32 1812.29 383.493 1799.12 371.84C1786.96 360.693 1780.88 346.633 1780.88 329.66C1780.88 312.433 1787.59 299.26 1801.02 290.14C1814.44 280.767 1832.81 276.08 1856.12 276.08ZM1907.04 311.8C1892.09 307.747 1878.16 305.72 1865.24 305.72C1840.92 305.72 1828.76 313.827 1828.76 330.04C1828.76 336.88 1831.54 342.833 1837.12 347.9C1842.69 352.713 1851.56 355.12 1863.72 355.12C1876.13 355.12 1886.26 351.067 1894.12 342.96C1902.22 334.6 1906.53 324.213 1907.04 311.8ZM2087.53 194.38C2099.18 194.38 2109.57 196.407 2118.69 200.46C2128.06 204.26 2135.92 209.327 2142.25 215.66C2154.92 227.82 2162.39 243.147 2164.67 261.64L2119.45 262.78C2117.42 254.673 2113.62 247.96 2108.05 242.64C2102.73 237.32 2096.52 234.66 2089.43 234.66C2082.34 234.66 2076.26 235.8 2071.19 238.08C2066.12 240.107 2061.69 243.4 2057.89 247.96C2049.28 258.6 2044.97 273.293 2044.97 292.04C2044.97 310.787 2049.02 324.973 2057.13 334.6C2065.24 343.973 2074.99 348.66 2086.39 348.66C2098.04 348.66 2106.4 346 2111.47 340.68C2116.79 335.107 2119.45 327.633 2119.45 318.26H2164.67C2164.67 338.527 2157.96 355.373 2144.53 368.8C2130.85 382.48 2111.72 389.32 2087.15 389.32C2062.83 389.32 2042.44 380.453 2025.97 362.72C2008.49 343.72 1999.75 320.033 1999.75 291.66C1999.75 261.767 2008.49 237.827 2025.97 219.84C2042.44 202.867 2062.96 194.38 2087.53 194.38ZM2284.09 293.94L2263.57 311.04V384H2218.73V123.32H2263.57V264.3L2336.53 199.32H2397.33L2315.63 267.72L2401.89 384H2347.17L2284.09 293.94ZM2525.85 132.44C2541.05 132.44 2554.22 134.34 2565.37 138.14C2576.52 141.687 2586.14 146.753 2594.25 153.34C2610.21 166.26 2620.6 184.373 2625.41 207.68L2577.53 216.42C2573.48 203.5 2567.14 193.113 2558.53 185.26C2550.17 177.153 2539.66 173.1 2526.99 173.1C2509.76 173.1 2495.83 180.32 2485.19 194.76C2473.79 210.467 2468.09 232.253 2468.09 260.12C2468.09 287.733 2473.16 309.393 2483.29 325.1C2493.42 340.553 2507.23 348.28 2524.71 348.28C2542.19 348.28 2555.36 344.1 2564.23 335.74C2573.1 327.127 2577.53 316.107 2577.53 302.68H2625.79C2625.79 330.293 2616.92 351.7 2599.19 366.9C2581.71 381.847 2557.64 389.32 2526.99 389.32C2494.31 389.32 2468.34 377.92 2449.09 355.12C2429.58 331.813 2419.83 300.147 2419.83 260.12C2419.83 219.587 2429.84 187.92 2449.85 165.12C2469.1 143.333 2494.44 132.44 2525.85 132.44ZM2750.73 194.38C2763.14 194.38 2774.8 196.407 2785.69 200.46C2796.58 204.26 2805.96 210.213 2813.81 218.32C2831.29 236.053 2840.03 260.627 2840.03 292.04C2840.03 322.947 2831.29 347.267 2813.81 365C2798.1 381.213 2777.08 389.32 2750.73 389.32C2724.38 389.32 2703.1 381.213 2686.89 365C2669.41 347.52 2660.67 323.2 2660.67 292.04C2660.67 260.373 2669.41 235.8 2686.89 218.32C2702.85 202.36 2724.13 194.38 2750.73 194.38ZM2795.19 291.66C2795.19 272.153 2791.39 257.587 2783.79 247.96C2776.19 238.08 2765.55 233.14 2751.87 233.14C2738.44 233.14 2727.42 238.08 2718.81 247.96C2710.2 257.587 2705.89 272.153 2705.89 291.66C2705.89 311.167 2709.69 325.86 2717.29 335.74C2725.14 345.367 2735.78 350.18 2749.21 350.18C2762.64 350.18 2773.66 345.367 2782.27 335.74C2790.88 325.86 2795.19 311.167 2795.19 291.66ZM3057.54 234.28C3069.45 207.68 3090.35 194.38 3120.24 194.38C3142.28 194.38 3159.38 201.853 3171.54 216.8C3183.2 230.987 3189.02 250.747 3189.02 276.08V384H3143.8V276.08C3143.8 262.4 3140.51 252.14 3133.92 245.3C3127.34 238.207 3118.09 234.66 3106.18 234.66C3094.28 234.66 3084.52 239.853 3076.92 250.24C3069.32 260.627 3065.27 276.333 3064.76 297.36V384H3019.92V276.08C3019.92 262.4 3016.63 252.14 3010.04 245.3C3003.46 238.207 2994.21 234.66 2982.3 234.66C2970.4 234.66 2960.14 239.98 2951.52 250.62C2943.16 261.26 2938.73 277.22 2938.22 298.5V384H2893.38V199.32H2932.52L2937.46 231.24C2949.62 206.667 2969.13 194.38 2995.98 194.38C3011.44 194.38 3024.23 197.927 3034.36 205.02C3044.75 212.113 3052.48 221.867 3057.54 234.28ZM3295.13 224.4C3306.78 204.387 3324.51 194.38 3348.33 194.38C3371.13 194.38 3390.63 202.993 3406.85 220.22C3424.07 238.46 3432.69 262.273 3432.69 291.66C3432.69 321.3 3423.95 345.24 3406.47 363.48C3390.25 380.707 3370.87 389.32 3348.33 389.32C3325.78 389.32 3309.31 382.607 3298.93 369.18V474.06H3254.09V199.32H3290.95L3295.13 224.4ZM3340.35 348.66C3345.67 348.66 3351.11 347.52 3356.69 345.24C3362.51 342.96 3367.71 339.413 3372.27 334.6C3382.4 323.96 3387.47 309.773 3387.47 292.04C3387.47 274.053 3383.03 259.993 3374.17 249.86C3365.55 239.727 3354.91 234.66 3342.25 234.66C3329.83 234.66 3319.57 238.333 3311.47 245.68C3303.61 252.773 3299.43 263.033 3298.93 276.46V309.52C3298.93 321.427 3303.11 331.053 3311.47 338.4C3319.32 345.24 3328.95 348.66 3340.35 348.66ZM3558.6 194.38C3571.01 194.38 3582.67 196.407 3593.56 200.46C3604.45 204.26 3613.83 210.213 3621.68 218.32C3639.16 236.053 3647.9 260.627 3647.9 292.04C3647.9 322.947 3639.16 347.267 3621.68 365C3605.97 381.213 3584.95 389.32 3558.6 389.32C3532.25 389.32 3510.97 381.213 3494.76 365C3477.28 347.52 3468.54 323.2 3468.54 292.04C3468.54 260.373 3477.28 235.8 3494.76 218.32C3510.72 202.36 3532 194.38 3558.6 194.38ZM3603.06 291.66C3603.06 272.153 3599.26 257.587 3591.66 247.96C3584.06 238.08 3573.42 233.14 3559.74 233.14C3546.31 233.14 3535.29 238.08 3526.68 247.96C3518.07 257.587 3513.76 272.153 3513.76 291.66C3513.76 311.167 3517.56 325.86 3525.16 335.74C3533.01 345.367 3543.65 350.18 3557.08 350.18C3570.51 350.18 3581.53 345.367 3590.14 335.74C3598.75 325.86 3603.06 311.167 3603.06 291.66ZM3726.33 327.76C3726.84 345.24 3739.63 353.98 3764.71 353.98C3774.34 353.98 3782.19 351.953 3788.27 347.9C3794.61 343.593 3797.77 338.653 3797.77 333.08C3797.77 327.507 3795.87 323.2 3792.07 320.16C3788.27 317.12 3782.32 314.333 3774.21 311.8L3733.93 297.36C3704.04 286.973 3689.09 270 3689.09 246.44C3689.09 230.733 3696.06 218.193 3709.99 208.82C3724.18 199.193 3743.05 194.38 3766.61 194.38C3790.43 194.38 3808.67 199.573 3821.33 209.96C3834.25 220.347 3840.97 233.393 3841.47 249.1H3799.29C3798.79 243.02 3795.87 238.207 3790.55 234.66C3785.23 231.113 3777.63 229.34 3767.75 229.34C3757.87 229.34 3750.15 231.367 3744.57 235.42C3739.25 239.22 3736.59 243.653 3736.59 248.72C3736.59 257.587 3744.07 264.173 3759.01 268.48L3802.71 284.82C3817.15 289.633 3828.17 295.84 3835.77 303.44C3843.63 310.787 3847.55 320.413 3847.55 332.32C3847.55 347.52 3840.33 360.693 3825.89 371.84C3810.95 383.493 3791.19 389.32 3766.61 389.32C3742.04 389.32 3722.28 384 3707.33 373.36C3692.39 362.467 3684.79 347.267 3684.53 327.76H3726.33ZM4030.46 221.36C4036.8 229.467 4041.48 238.84 4044.52 249.48C4047.82 260.12 4049.46 269.873 4049.46 278.74C4049.46 287.607 4048.96 295.587 4047.94 302.68H3928.62C3929.13 317.627 3932.8 329.787 3939.64 339.16C3946.48 348.533 3956.87 353.22 3970.8 353.22C3989.3 353.22 4000.32 345.113 4003.86 328.9H4049.08C4046.04 347.393 4037.56 361.96 4023.62 372.6C4009.18 383.747 3991.58 389.32 3970.8 389.32C3946.48 389.32 3926.09 380.453 3909.62 362.72C3892.65 344.227 3884.16 320.54 3884.16 291.66C3884.16 262.02 3892.65 238.207 3909.62 220.22C3925.84 202.993 3946.23 194.38 3970.8 194.38C3996.39 194.38 4016.28 203.373 4030.46 221.36ZM3971.18 230.1C3958.52 230.1 3948.64 234.28 3941.54 242.64C3934.45 250.747 3930.27 261.26 3929 274.18H4007.66C4007.66 254.167 4001.33 240.74 3988.66 233.9C3983.85 231.367 3978.02 230.1 3971.18 230.1ZM4108.09 387.42C4098.97 387.42 4091.5 384.633 4085.67 379.06C4079.84 373.487 4076.93 366.393 4076.93 357.78C4076.93 349.167 4079.84 341.947 4085.67 336.12C4091.5 330.293 4098.97 327.38 4108.09 327.38C4117.21 327.38 4124.81 330.293 4130.89 336.12C4136.97 341.947 4140.01 349.167 4140.01 357.78C4140.01 366.393 4136.97 373.487 4130.89 379.06C4124.81 384.633 4117.21 387.42 4108.09 387.42ZM4245.59 276.08C4260.28 276.08 4277.26 278.487 4296.51 283.3V265.06C4296.51 252.14 4293.85 242.64 4288.53 236.56C4283.46 230.227 4274.98 227.06 4263.07 227.06C4251.42 227.06 4242.42 229.467 4236.09 234.28C4229.76 238.84 4226.59 245.427 4226.59 254.04H4177.57C4177.57 233.013 4184.92 217.813 4199.61 208.44C4214.56 199.067 4235.33 194.38 4261.93 194.38C4299.93 194.38 4324.5 207.68 4335.65 234.28C4339.45 243.4 4341.35 254.167 4341.35 266.58V384H4302.21L4298.79 359.3C4286.88 379.313 4268.64 389.32 4244.07 389.32C4220.26 389.32 4201.76 383.493 4188.59 371.84C4176.43 360.693 4170.35 346.633 4170.35 329.66C4170.35 312.433 4177.06 299.26 4190.49 290.14C4203.92 280.767 4222.28 276.08 4245.59 276.08ZM4296.51 311.8C4281.56 307.747 4267.63 305.72 4254.71 305.72C4230.39 305.72 4218.23 313.827 4218.23 330.04C4218.23 336.88 4221.02 342.833 4226.59 347.9C4232.16 352.713 4241.03 355.12 4253.19 355.12C4265.6 355.12 4275.74 351.067 4283.59 342.96C4291.7 334.6 4296 324.213 4296.51 311.8ZM4447.74 224.4C4459.4 204.387 4477.13 194.38 4500.94 194.38C4523.74 194.38 4543.25 202.993 4559.46 220.22C4576.69 238.46 4585.3 262.273 4585.3 291.66C4585.3 321.3 4576.56 345.24 4559.08 363.48C4542.87 380.707 4523.49 389.32 4500.94 389.32C4478.4 389.32 4461.93 382.607 4451.54 369.18V474.06H4406.7V199.32H4443.56L4447.74 224.4ZM4492.96 348.66C4498.28 348.66 4503.73 347.52 4509.3 345.24C4515.13 342.96 4520.32 339.413 4524.88 334.6C4535.02 323.96 4540.08 309.773 4540.08 292.04C4540.08 274.053 4535.65 259.993 4526.78 249.86C4518.17 239.727 4507.53 234.66 4494.86 234.66C4482.45 234.66 4472.19 238.333 4464.08 245.68C4456.23 252.773 4452.05 263.033 4451.54 276.46V309.52C4451.54 321.427 4455.72 331.053 4464.08 338.4C4471.94 345.24 4481.56 348.66 4492.96 348.66ZM4679.68 224.4C4691.33 204.387 4709.06 194.38 4732.88 194.38C4755.68 194.38 4775.18 202.993 4791.4 220.22C4808.62 238.46 4817.24 262.273 4817.24 291.66C4817.24 321.3 4808.5 345.24 4791.02 363.48C4774.8 380.707 4755.42 389.32 4732.88 389.32C4710.33 389.32 4693.86 382.607 4683.48 369.18V474.06H4638.64V199.32H4675.5L4679.68 224.4ZM4724.9 348.66C4730.22 348.66 4735.66 347.52 4741.24 345.24C4747.06 342.96 4752.26 339.413 4756.82 334.6C4766.95 323.96 4772.02 309.773 4772.02 292.04C4772.02 274.053 4767.58 259.993 4758.72 249.86C4750.1 239.727 4739.46 234.66 4726.8 234.66C4714.38 234.66 4704.12 238.333 4696.02 245.68C4688.16 252.773 4683.98 263.033 4683.48 276.46V309.52C4683.48 321.427 4687.66 331.053 4696.02 338.4C4703.87 345.24 4713.5 348.66 4724.9 348.66Z" fill="#083042"/>
<path d="M2042.81 778.7C2031.21 778.7 2021.01 776.1 2012.21 770.9C2003.61 765.7 1997.11 758.6 1992.71 749.6V776H1969.01V564.5H1993.31V655.4C1997.51 646.8 2004.01 640 2012.81 635C2021.61 630 2031.61 627.5 2042.81 627.5C2055.81 627.5 2067.11 630.6 2076.71 636.8C2086.51 642.8 2094.01 651.5 2099.21 662.9C2104.61 674.1 2107.31 687.5 2107.31 703.1C2107.31 718.5 2104.61 731.9 2099.21 743.3C2094.01 754.5 2086.51 763.2 2076.71 769.4C2067.11 775.6 2055.81 778.7 2042.81 778.7ZM2037.71 759.2C2051.31 759.2 2062.21 754.4 2070.41 744.8C2078.61 735 2082.71 721.1 2082.71 703.1C2082.71 684.9 2078.61 671 2070.41 661.4C2062.21 651.8 2051.31 647 2037.71 647C2024.11 647 2013.21 651.8 2005.01 661.4C1996.81 671 1992.71 684.9 1992.71 703.1C1992.71 721.1 1996.81 735 2005.01 744.8C2013.21 754.4 2024.11 759.2 2037.71 759.2ZM2158.66 830L2183.56 773.6L2122.06 630.2H2148.46L2196.76 748.4L2245.36 630.2H2270.86L2184.16 830H2158.66ZM2442.31 776L2349.91 564.5H2376.31L2454.01 744.8L2531.41 564.5H2557.21L2464.51 776H2442.31ZM2576.85 593.9V566.6H2606.85V593.9H2576.85ZM2579.85 776V630.2H2604.15V776H2579.85ZM2649.57 776V630.2H2673.27V655.1C2678.07 645.9 2684.87 639 2693.67 634.4C2702.47 629.8 2712.37 627.5 2723.37 627.5C2757.97 627.5 2775.27 646.7 2775.27 685.1V776H2750.97V686.6C2750.97 673 2748.27 663.1 2742.87 656.9C2737.67 650.5 2729.27 647.3 2717.67 647.3C2704.27 647.3 2693.57 651.5 2685.57 659.9C2677.77 668.1 2673.87 679.1 2673.87 692.9V776H2649.57ZM2865.98 778.7C2855.98 778.7 2846.98 776.8 2838.98 773C2831.18 769 2824.98 763.6 2820.38 756.8C2815.78 750 2813.48 742.4 2813.48 734C2813.48 723.4 2816.18 715 2821.58 708.8C2827.18 702.6 2836.28 698.2 2848.88 695.6C2861.68 692.8 2879.08 691.4 2901.08 691.4H2910.68V682.1C2910.68 669.7 2908.08 660.8 2902.88 655.4C2897.88 649.8 2889.78 647 2878.58 647C2869.78 647 2861.28 648.3 2853.08 650.9C2844.88 653.3 2836.48 657.3 2827.88 662.9L2819.48 645.2C2827.08 639.8 2836.28 635.5 2847.08 632.3C2858.08 629.1 2868.58 627.5 2878.58 627.5C2897.38 627.5 2911.28 632.1 2920.28 641.3C2929.48 650.5 2934.08 664.8 2934.08 684.2V776H2911.28V750.8C2907.48 759.4 2901.58 766.2 2893.58 771.2C2885.78 776.2 2876.58 778.7 2865.98 778.7ZM2869.88 760.4C2881.88 760.4 2891.68 756.3 2899.28 748.1C2906.88 739.7 2910.68 729.1 2910.68 716.3V707.3H2901.38C2885.18 707.3 2872.38 708.1 2862.98 709.7C2853.78 711.1 2847.28 713.7 2843.48 717.5C2839.88 721.1 2838.08 726.1 2838.08 732.5C2838.08 740.7 2840.88 747.4 2846.48 752.6C2852.28 757.8 2860.08 760.4 2869.88 760.4ZM2994.5 830L3019.4 773.6L2957.9 630.2H2984.3L3032.6 748.4L3081.2 630.2H3106.7L3020 830H2994.5ZM3308.75 778.7C3274.75 778.7 3248.85 769.1 3231.05 749.9C3213.25 730.7 3204.35 704.2 3204.35 670.4C3204.35 648 3208.35 628.7 3216.35 612.5C3224.35 596.3 3235.85 583.8 3250.85 575C3265.85 566.2 3283.95 561.8 3305.15 561.8C3320.15 561.8 3333.95 564.1 3346.55 568.7C3359.15 573.1 3369.85 579.6 3378.65 588.2L3369.05 608C3359.45 599.6 3349.55 593.5 3339.35 589.7C3329.15 585.9 3317.65 584 3304.85 584C3280.85 584 3262.45 591.6 3249.65 606.8C3236.85 621.8 3230.45 643 3230.45 670.4C3230.45 698.4 3237.05 719.8 3250.25 734.6C3263.45 749.4 3283.15 756.8 3309.35 756.8C3326.35 756.8 3342.65 753.9 3358.25 748.1V685.4H3304.55V665.9H3379.55V763.7C3373.95 766.7 3367.15 769.3 3359.15 771.5C3351.35 773.7 3343.05 775.4 3334.25 776.6C3325.45 778 3316.95 778.7 3308.75 778.7ZM3472.43 778.7C3462.43 778.7 3453.43 776.8 3445.43 773C3437.63 769 3431.43 763.6 3426.83 756.8C3422.23 750 3419.93 742.4 3419.93 734C3419.93 723.4 3422.63 715 3428.03 708.8C3433.63 702.6 3442.73 698.2 3455.33 695.6C3468.13 692.8 3485.53 691.4 3507.53 691.4H3517.13V682.1C3517.13 669.7 3514.53 660.8 3509.33 655.4C3504.33 649.8 3496.23 647 3485.03 647C3476.23 647 3467.73 648.3 3459.53 650.9C3451.33 653.3 3442.93 657.3 3434.33 662.9L3425.93 645.2C3433.53 639.8 3442.73 635.5 3453.53 632.3C3464.53 629.1 3475.03 627.5 3485.03 627.5C3503.83 627.5 3517.73 632.1 3526.73 641.3C3535.93 650.5 3540.53 664.8 3540.53 684.2V776H3517.73V750.8C3513.93 759.4 3508.03 766.2 3500.03 771.2C3492.23 776.2 3483.03 778.7 3472.43 778.7ZM3476.33 760.4C3488.33 760.4 3498.13 756.3 3505.73 748.1C3513.33 739.7 3517.13 729.1 3517.13 716.3V707.3H3507.83C3491.63 707.3 3478.83 708.1 3469.43 709.7C3460.23 711.1 3453.73 713.7 3449.93 717.5C3446.33 721.1 3444.53 726.1 3444.53 732.5C3444.53 740.7 3447.33 747.4 3452.93 752.6C3458.73 757.8 3466.53 760.4 3476.33 760.4ZM3659.41 778.7C3647.81 778.7 3637.61 776.1 3628.81 770.9C3620.21 765.7 3613.71 758.6 3609.31 749.6V776H3585.61V564.5H3609.91V655.4C3614.11 646.8 3620.61 640 3629.41 635C3638.21 630 3648.21 627.5 3659.41 627.5C3672.41 627.5 3683.71 630.6 3693.31 636.8C3703.11 642.8 3710.61 651.5 3715.81 662.9C3721.21 674.1 3723.91 687.5 3723.91 703.1C3723.91 718.5 3721.21 731.9 3715.81 743.3C3710.61 754.5 3703.11 763.2 3693.31 769.4C3683.71 775.6 3672.41 778.7 3659.41 778.7ZM3654.31 759.2C3667.91 759.2 3678.81 754.4 3687.01 744.8C3695.21 735 3699.31 721.1 3699.31 703.1C3699.31 684.9 3695.21 671 3687.01 661.4C3678.81 651.8 3667.91 647 3654.31 647C3640.71 647 3629.81 651.8 3621.61 661.4C3613.41 671 3609.31 684.9 3609.31 703.1C3609.31 721.1 3613.41 735 3621.61 744.8C3629.81 754.4 3640.71 759.2 3654.31 759.2ZM3806.41 778.7C3796.41 778.7 3787.41 776.8 3779.41 773C3771.61 769 3765.41 763.6 3760.81 756.8C3756.21 750 3753.91 742.4 3753.91 734C3753.91 723.4 3756.61 715 3762.01 708.8C3767.61 702.6 3776.71 698.2 3789.31 695.6C3802.11 692.8 3819.51 691.4 3841.51 691.4H3851.11V682.1C3851.11 669.7 3848.51 660.8 3843.31 655.4C3838.31 649.8 3830.21 647 3819.01 647C3810.21 647 3801.71 648.3 3793.51 650.9C3785.31 653.3 3776.91 657.3 3768.31 662.9L3759.91 645.2C3767.51 639.8 3776.71 635.5 3787.51 632.3C3798.51 629.1 3809.01 627.5 3819.01 627.5C3837.81 627.5 3851.71 632.1 3860.71 641.3C3869.91 650.5 3874.51 664.8 3874.51 684.2V776H3851.71V750.8C3847.91 759.4 3842.01 766.2 3834.01 771.2C3826.21 776.2 3817.01 778.7 3806.41 778.7ZM3810.31 760.4C3822.31 760.4 3832.11 756.3 3839.71 748.1C3847.31 739.7 3851.11 729.1 3851.11 716.3V707.3H3841.81C3825.61 707.3 3812.81 708.1 3803.41 709.7C3794.21 711.1 3787.71 713.7 3783.91 717.5C3780.31 721.1 3778.51 726.1 3778.51 732.5C3778.51 740.7 3781.31 747.4 3786.91 752.6C3792.71 757.8 3800.51 760.4 3810.31 760.4Z" fill="#B9B9B9"/>
</g>
<defs>
<clipPath id="clip0">
<rect width="5000" height="1024" fill="white"/>
</clipPath>
</defs>
</svg>
